<svg width="25" height="25" fill="none" xmlns="http://www.w3.org/2000/svg"><g clip-path="url(#clip0_3_10880)"><path d="M23.656.001H1.366C.975.001.614.22.435.57c-.182.354-.15.78.082 1.105l8.166 11.503.008.011c.297.4.457.886.458 1.384v9.379a1.043 1.043 0 001.454.967l4.589-1.75c.411-.125.684-.513.684-.98v-7.616c0-.498.161-.983.458-1.384l.008-.011 8.166-11.504A1.06 1.06 0 0024.589.57a1.047 1.047 0 00-.933-.57zM15.31 12.437a3.613 3.613 0 00-.705 2.136v7.461l-4.188 1.597v-9.058a3.611 3.611 0 00-.704-2.136L1.786 1.27h21.451L15.31 12.437z" fill="#fff"/></g><defs><clipPath id="clip0_3_10880"><path fill="#fff" transform="translate(0 .001)" d="M0 0h25v25H0z"/></clipPath></defs></svg>